<svg xmlns="http://www.w3.org/2000/svg" xmlns:xlink="http://www.w3.org/1999/xlink" width="48" height="48" id="leaf">
  <defs>
    <linearGradient xlink:href="#a" id="b" x1="1073.403" x2="1097.116" y1="516.451" y2="544.308" gradientTransform="translate(-1643.872 211.343)scale(1.53785)" gradientUnits="userSpaceOnUse"></linearGradient>
    <linearGradient id="a">
      <stop offset="0" stop-color="#16ff6a"></stop>
      <stop offset="1" stop-color="#0090a5"></stop>
    </linearGradient>
  </defs>
  <g transform="translate(0 -1004.362)">
    <rect width="48" height="48" y="1004.362" fill="url(#b)" rx="10.144" ry="10.144"></rect>
    <path fill="#fff" fill-rule="evenodd" d="M29.263 1016.363a.5.5 0 0 0-.051 0 .5.5 0 0 0-.197.06s-3.3 1.76-5.018 4.976c-4.459-3.326-10.826-3.371-10.826-3.371a.5.5 0 0 0-.506.507s.044 6.366 3.37 10.825c-3.216 1.718-4.975 5.02-4.975 5.02a.5.5 0 0 0 .177.661s3.241 2.03 6.932 1.856c-.84 2.081-.924 3.945-.924 3.945a.5.5 0 0 0 .522.52s4.34-.146 7.205-3.01c1.462-1.463 2.19-3.28 2.576-4.732l4.431 4.431a.5.5 0 1 0 .707-.707l-4.433-4.435c1.453-.387 3.273-1.111 4.736-2.575 2.864-2.862 3.01-7.203 3.01-7.203a.5.5 0 0 0-.521-.52s-1.861.077-3.942.916c.172-3.688-1.857-6.926-1.857-6.926a.5.5 0 0 0-.416-.238zm-.22 1.258c.352.628 1.866 3.46 1.429 6.574a.5.5 0 0 0-.02.147 7.51 7.51 0 0 1-.158.761.5.5 0 0 0 .967.26c.06-.227.106-.455.146-.682 1.555-.727 2.833-.92 3.485-.988-.077.828-.423 3.749-2.61 5.936-1.472 1.472-3.451 2.148-4.855 2.457l-.565-.567.703-5.31a.5.5 0 0 0-.486-.574.5.5 0 0 0-.504.441l-.603 4.553-3.295-3.295a.5.5 0 0 0-.36-.15.5.5 0 0 0-.347.857l3.299 3.299-4.557.603a.5.5 0 0 0 .13.992l5.315-.707.563.565c-.31 1.404-.984 3.382-2.455 4.853-2.186 2.186-5.106 2.532-5.936 2.61.068-.657.254-1.923.982-3.485.229-.04.457-.085.686-.146a.5.5 0 1 0-.258-.965c-3.456.926-6.796-.867-7.484-1.252.373-.624 1.84-2.948 4.431-4.25.138.154.268.314.415.461a.5.5 0 1 0 .707-.707c-3.7-3.699-4.023-9.886-4.061-10.8.918.037 7.101.364 10.799 4.062a.5.5 0 1 0 .707-.707c-.147-.147-.305-.277-.46-.414 1.302-2.593 3.627-4.06 4.25-4.432z" color="#000" font-family="sans-serif" font-weight="400" overflow="visible" style="line-height:normal;text-indent:0;text-align:start;text-decoration-line:none;text-decoration-style:solid;text-decoration-color:#000;text-transform:none;block-progression:tb;isolation:auto;mix-blend-mode:normal"></path>
  </g>
</svg>
